<?xml version="1.0" encoding="UTF-8"?><svg id="Layer_2" xmlns="http://www.w3.org/2000/svg" viewBox="0 0 451.91 77.23"><defs><style>.cls-1{fill:#fff;}.cls-2{fill:#c00c3f;}.cls-3{fill:#6d6e71;}</style></defs><g id="Layer_1-2"><g><g><path class="cls-2" d="M38.61,77.23c21.33,0,38.62-17.29,38.62-38.62S59.94,0,38.61,0,0,17.29,0,38.61s17.29,38.62,38.61,38.62"/><polygon class="cls-1" points="37.07 21.67 37.07 55.52 47.85 55.52 47.85 52.49 40.16 52.49 40.16 21.67 37.07 21.67"/><path class="cls-1" d="M26.28,30.91c2.56,0,4.63-2.08,4.63-4.63s-2.07-4.62-4.63-4.62-4.62,2.07-4.62,4.62,2.07,4.63,4.62,4.63"/><path class="cls-1" d="M40.16,6.3c-.4-.02-1.17-.03-1.55-.03C20.79,6.28,6.29,20.79,6.29,38.6c0,8.63,3.37,16.75,9.47,22.86,6.11,6.11,14.23,9.47,22.85,9.47s16.76-3.36,22.87-9.47c6.09-6.1,9.46-14.23,9.46-22.86v-1.47h-1.3s-21.79,0-21.79,0v3.01h20v.44c-1.03,15.24-13.74,27.32-29.25,27.32-7.82,0-15.17-3.05-20.71-8.59-5.54-5.53-8.59-12.89-8.59-20.71s3.04-15.18,8.59-20.72c5.54-5.53,12.89-8.58,20.71-8.58,.35,0,1.18,0,1.55,.03v-3.02Z"/></g><g><polygon class="cls-3" points="106.35 12.96 94.73 12.96 94.73 63.27 130.42 63.27 130.42 53.47 106.35 53.47 106.35 12.96"/><path class="cls-3" d="M155.8,44.09h9.46v8.8c-1.74,.66-5.14,1.32-8.38,1.32-10.46,0-13.95-5.31-13.95-16.1s3.32-16.35,13.78-16.35c5.81,0,9.13,1.82,11.87,5.31l7.22-6.64c-4.4-6.31-12.12-8.22-19.34-8.22-16.27,0-24.83,8.88-24.83,25.82s7.72,25.98,24.74,25.98c7.8,0,15.44-1.99,19.59-4.9v-24.41h-20.17v9.38Z"/><g><path class="cls-3" d="M250.94,59.22c0,3.6,1.78,4.71,5.04,4.71h28.64v-21.56h-33.69v16.85Zm7.87-9.76h16v7.37h-14.95c-.89,0-1.05-.28-1.05-1v-6.38Z"/><path class="cls-3" d="M284.63,12.21h-8.87v15.63c-2.44,1.61-6.65,2.27-10.48,2.27h-11.64c-1,0-1.33-.11-1.33-1.11V12.87h-8.92v19.96c0,3.22,1.61,4.44,4.43,4.44h17.18c4.49,0,8.43-1.16,10.75-2.61v5.43h8.87v-11.03h8.76v-7.21h-8.76V12.21Z"/><path class="cls-3" d="M202.42,31.45c2.38,3.99,7.54,7.21,12.2,8.37l4.1-7.82c-6.71-1.88-12.42-5.38-12.42-13.19v-5.93h-9.04v5.88c0,7.71-2.77,12.64-11.86,16.3l3.05,6.1c6.37-1.77,11.58-5.27,13.97-9.7Z"/><path class="cls-3" d="M214.4,41.98c-12.14,0-15.91,5.32-15.91,11.37s3.77,11.31,15.91,11.31,16.24-5.1,16.24-11.31-3.83-11.37-16.24-11.37Zm.05,16.41c-4.54,0-6.93-1.77-6.93-5.04s2.38-4.99,6.93-4.99,6.99,1.88,6.99,4.99c0,3.27-2.33,5.04-6.99,5.04Z"/><path class="cls-3" d="M230.42,12.21h-8.87v29.16h8.04c.61-2.55,.83-5.6,.83-7.98v-3.83h8.87v-7.37h-8.87V12.21Z"/></g><path class="cls-3" d="M366.96,12.8h-9.15v11.26c0,9.49-2.66,15.2-12.04,19.42l3.5,6.6c5.55-2.11,11.15-6.16,13.76-11.1,2.5,5.05,7.94,8.99,12.48,10.54l4.16-7.6c-9.04-3.38-12.71-9.04-12.71-17.92V12.8Zm26.08-.61h-9.04v12.15h-10.76v7.32h10.76V63.96h7.99c.61-3.05,1.05-7.49,1.05-11.21V12.19Zm-55.83,1.22h-36.66v23.08c0,2.94,1.55,4.05,4.38,4.05h9.65v8.43h-19.31v7.21h47.66v-7.21h-19.2v-8.43h13.47v-7.1h-26.83c-.72,0-.94-.17-.94-.94v-11.98h27.78v-7.1Zm92.51-.5h-28.19v6.88h19.09v4.11c0,3.16-.56,6.16-1.33,8.32l8.32,1.11c1.5-2.72,2.11-7.38,2.11-11.21V12.91Zm13.48,43.55h-25.8c-.72,0-1-.17-1-1v-9.09h-9.16v13.54c0,2.83,1.39,4.05,4.16,4.05h31.79v-7.5Zm8.71-31.51h-8.88V12.19h-8.88V50.64h8.05c.61-2.55,.83-5.6,.83-7.99v-10.32h8.88v-7.38Zm-44.55,11.82h-7.66v6.77h20.25c5.55,0,12.04-1.28,15.54-3.33v-6.88c-3.55,2.16-9.04,3.44-14.2,3.44h-5.22v-10.99h-8.71v10.99Z"/></g></g></g></svg>