<?xml version="1.0" encoding="UTF-8"?><svg id="Layer_2" xmlns="http://www.w3.org/2000/svg" xmlns:xlink="http://www.w3.org/1999/xlink" viewBox="0 0 194.64 76.09"><defs><style>.cls-1{fill:url(#linear-gradient);}.cls-1,.cls-2{fill-rule:evenodd;}.cls-3{fill:#727171;}.cls-4{opacity:.6;}.cls-2{fill:#c40037;}</style><linearGradient id="linear-gradient" x1="999.77" y1="-1953.46" x2="999.77" y2="-1888.32" gradientTransform="translate(-2066.54 496.87) rotate(50)" gradientUnits="userSpaceOnUse"><stop offset="0" stop-color="#b70033"/><stop offset=".07" stop-color="#cc3f4d"/><stop offset=".14" stop-color="#a90022"/><stop offset=".21" stop-color="#c30037"/><stop offset=".24" stop-color="#b70033"/><stop offset=".29" stop-color="#c20036"/><stop offset=".33" stop-color="#cc4f56"/><stop offset=".38" stop-color="#b70033"/><stop offset=".41" stop-color="#a90022"/><stop offset=".49" stop-color="#cc3f4d"/><stop offset=".55" stop-color="#c30037"/><stop offset=".59" stop-color="#a90022"/><stop offset=".61" stop-color="#b70033"/><stop offset=".66" stop-color="#cc4f56"/><stop offset=".72" stop-color="#c30037"/><stop offset=".77" stop-color="#a90022"/><stop offset=".8" stop-color="#b70033"/><stop offset=".87" stop-color="#cc3f4d"/><stop offset=".92" stop-color="#cc3f4d"/><stop offset="1" stop-color="#c42a41"/></linearGradient></defs><g id="_레이어_1"><g><g><g><path class="cls-3" d="M127.8,20.79h2.81l.05-.31c.18-1.12,.31-2.76,.31-3.98v-7.75h3.29v-2.81h-3.29V0h-3.18V20.79Z"/><path class="cls-3" d="M135.75,18.73h17.81v-2.77h-17.81v2.77Z"/><path class="cls-3" d="M137.85,.98V10.97c0,1.36,.65,2.02,1.97,2.02h11.79v-2.7h-10.61v-1.96h10.1v-2.73h-10.1v-1.87h10.54V.98h-13.69Z"/><path class="cls-3" d="M170.61,14.95h2.39l.06-.28c.24-.96,.31-2.46,.31-3.55V0h-2.77V14.95Z"/><path class="cls-3" d="M166.75,14.56h2.39l.06-.31c.16-.88,.27-2.16,.27-3.26V.02h-2.71V4.4h-2.87v2.67h2.87v7.48Z"/><path class="cls-3" d="M160.05,13.07v5.73c0,1.23,.64,1.89,1.86,1.89h11.7v-2.68h-10.41v-4.94h-3.15Z"/><path class="cls-3" d="M154.83,10.44l1.27,2.23,.3-.13c1.83-.81,3.16-1.96,3.96-3.43l.04-.07,.05,.07c.76,1.35,2.07,2.47,3.44,3.1l.29,.14,1.45-2.33-.41-.17c-2.57-1.1-3.51-3.15-3.51-6.43V.85h-3.07V3.43c0,3.77-.87,5.49-3.46,6.83l-.35,.18Z"/><path class="cls-3" d="M177.57,.95V11.84c0,1.81,.86,2.17,2.26,2.17h3.85c2.09,0,4.21-.37,5.26-.91l.24-.13-.04-.28c-.09-.6-.17-1.09-.25-1.68l-.05-.47-.44,.16c-1.02,.39-2.73,.62-4.56,.62h-2.87s-.06,0-.08,0h-.04v-2.71h5.71v-2.57h-5.71V3.64h6.64V.95h-9.91Z"/><path class="cls-3" d="M191.38,20.79h2.86l.06-.3c.2-1.03,.34-2.68,.34-4V0h-3.26V5.9h-3.41v2.56h3.41v12.33Z"/><path class="cls-3" d="M119.86,.71c-4.62,0-6.26,3.65-6.26,6.76,0,4.14,2.45,6.82,6.26,6.82s6.32-2.68,6.32-6.82c0-3.12-1.65-6.76-6.32-6.76Zm.04,10.78c-2.08,0-3.13-1.37-3.13-4.07s1.08-3.93,3.13-3.93,3.11,1.36,3.11,3.93-1.04,4.07-3.11,4.07Z"/></g><g><polygon class="cls-3" points="82.49 .84 78.13 .84 78.13 19.69 91.51 19.69 91.51 16.02 82.49 16.02 82.49 .84"/><path class="cls-3" d="M101.08,12.5h3.55v3.29c-.65,.25-1.93,.5-3.14,.5-3.92,0-5.22-1.99-5.22-6.03s1.24-6.13,5.16-6.13c2.17,0,3.42,.69,4.44,1.99l2.71-2.49c-1.65-2.36-4.54-3.08-7.25-3.08-6.09,0-9.3,3.33-9.3,9.67s2.89,9.74,9.27,9.74c2.92,0,5.78-.75,7.34-1.84V8.99h-7.56v3.51Z"/></g></g><g><path class="cls-3" d="M84.1,32.28v-3.55h-2.11v3.59c0,4.04-1.49,6.49-4.85,7.97l-.09,.04,.86,1.41,.07-.03c2.7-1.26,4.37-2.91,5.22-5.18,.88,2.22,2.56,3.88,5,4.95l.07,.03,1.11-1.73-.1-.04c-3.49-1.26-5.18-3.7-5.18-7.47Z"/><path class="cls-3" d="M91.63,33.48h-4.58v1.82h4.58v13.31h1.78v-.07c.17-.94,.28-2.49,.28-3.68V27.89h-2.06v5.59Z"/><path class="cls-3" d="M106.01,35.82c3.67,0,5.68-1.42,5.68-4s-2.02-4.07-5.68-4.07-5.64,1.44-5.64,4.07,2,4,5.64,4Zm-3.55-4.04c0-1.63,1.1-2.36,3.55-2.36s3.58,.73,3.58,2.36-1.1,2.38-3.58,2.38-3.55-.74-3.55-2.38Z"/><path class="cls-3" d="M115.36,38.62v-1.75h-18.67v1.75h8.27v1.67h-4.99v1.7h9.87v1.6h-9.87v3.82c0,.88,.37,1.26,1.23,1.26h11.44v-1.7h-10.43c-.19,0-.2,0-.2-.23v-1.49h9.47l.02-.05c.24-.48,.37-1.24,.37-2.15v-2.76h-4.81v-1.67h8.29Z"/></g><g><path class="cls-2" d="M66.67,39.3c-2.67,1.67-3.5,4.71-4.92,7.8-.59,1.56-2.38,7.13-3.96,8.53-.93,.82-1.56,1.1-2.61,1.78-3.99,2.61-5.11,15.52-9.71,18.68l-15.05-18.19c5.73-3.67,6.68-7.87,10.99-11.7l-13.28-15.55c-5.43,.19-9.95,7.01-14.62,6.67L0,21.34c3.61,.57,16.52-9.53,21.39-8.77,1.24,.19,1.68,.59,2.91,.79,2.12,.33,8.44-3.45,9.99-4.26,2.67-1.21,6.84-3.65,9.89-3.18,1.23,.19,1.78,.8,3.02,.99,3.42,.55,14.58-7.81,19.47-6.65v15.82c-4.01,.1-7.75,4.5-10.35,4.57-1.24,.03-2.05-.21-3.3-.31-4.08-.31-6,1.97-8.53,3.43-.57,.38-1.95,1.05-3.42,1.88l8.3,9.88c2.41-1.46,5.61-10.34,8.78-11.78,1.14-.52,1.89-.25,2.8-1.11,2.73-2.59,3.45-4.74,5.72-5.95v22.6Z"/><g class="cls-4"><path class="cls-1" d="M66.67,39.3c-2.67,1.67-3.5,4.71-4.92,7.8-.59,1.56-2.38,7.13-3.96,8.53-.93,.82-1.56,1.1-2.61,1.78-3.99,2.61-5.11,15.52-9.71,18.68l-15.05-18.19c5.73-3.67,6.68-7.87,10.99-11.7l-13.28-15.55c-5.43,.19-9.95,7.01-14.62,6.67L0,21.34c3.61,.57,16.52-9.53,21.39-8.77,1.24,.19,1.68,.59,2.91,.79,2.12,.33,8.44-3.45,9.99-4.26,2.67-1.21,6.84-3.65,9.89-3.18,1.23,.19,1.78,.8,3.02,.99,3.42,.55,14.58-7.81,19.47-6.65v15.82c-4.01,.1-7.75,4.5-10.35,4.57-1.24,.03-2.05-.21-3.3-.31-4.08-.31-6,1.97-8.53,3.43-.57,.38-1.95,1.05-3.42,1.88l8.3,9.88c2.41-1.46,5.61-10.34,8.78-11.78,1.14-.52,1.89-.25,2.8-1.11,2.73-2.59,3.45-4.74,5.72-5.95v22.6Z"/></g></g></g></g></svg>