<svg xmlns="http://www.w3.org/2000/svg" width="18.197" height="12.995" viewBox="0 0 18.197 12.995">
  <g id="Group_14" data-name="Group 14" transform="translate(-1624.803 -623)">
    <path id="Path_11" data-name="Path 11" d="M19.543,6H2.649A.71.71,0,0,0,2,6.758a.71.71,0,0,0,.65.758H19.543a.71.71,0,0,0,.65-.758A.71.71,0,0,0,19.543,6Z" transform="translate(1622.806 617)"/>
    <path id="Path_12" data-name="Path 12" d="M2.758,16.516h9.855a.758.758,0,0,0,0-1.516H2.758a.758.758,0,1,0,0,1.516Z" transform="translate(1622.805 613.739)"/>
    <path id="Path_13" data-name="Path 13" d="M16.53,24H2.632a.771.771,0,0,0,0,1.516h13.9a.771.771,0,0,0,0-1.516Z" transform="translate(1622.805 610.479)"/>
  </g>
</svg>
