<svg xmlns="http://www.w3.org/2000/svg" width="25.3" height="20" viewBox="0 0 25.3 20">
  <g id="Group_15" data-name="Group 15" transform="translate(-1539.809 -619)">
    <g id="Group_5" data-name="Group 5" transform="translate(1539.809 619)">
      <path id="Path_15" data-name="Path 15" d="M6.19-1.09V0H.94V-7H6.05v1.09H2.24v1.82H5.62v1.07H2.24v1.93ZM13.96-7V0H12.89L9.03-4.74V0H7.74V-7H8.81l3.86,4.74V-7Z" transform="translate(11.34 20)"/>
      <path id="Path_14" data-name="Path 14" d="M9.981,10.323h9.344c0-.108.015-.213.015-.323A9.839,9.839,0,0,0,9.67,0,9.839,9.839,0,0,0,0,10,9.839,9.839,0,0,0,9.67,20c.1,0,.207-.013.311-.016Zm0-.644h0V6.436a9.956,9.956,0,0,0,3.054-.583,12.617,12.617,0,0,1,.676,3.822Zm8.095,0h-3.74a13.245,13.245,0,0,0-.717-4.045,10.12,10.12,0,0,0,2.33-1.417,8.828,8.828,0,0,1,2.127,5.461ZM15.523,3.75a9.475,9.475,0,0,1-2.139,1.289,11.38,11.38,0,0,0-2.331-3.622,8.3,8.3,0,0,1,4.47,2.333ZM9.981,1.307h.032A10.407,10.407,0,0,1,12.8,5.259a9.364,9.364,0,0,1-2.82.529Zm-1.692.112a11.368,11.368,0,0,0-2.334,3.62A9.5,9.5,0,0,1,3.817,3.75a8.3,8.3,0,0,1,4.47-2.333Zm-4.9,2.8A10.129,10.129,0,0,0,5.721,5.633a13.245,13.245,0,0,0-.716,4.044H1.264A8.828,8.828,0,0,1,3.39,4.216ZM1.264,10.323H5a13.1,13.1,0,0,0,.938,4.6,10.027,10.027,0,0,0-2.207,1.246,8.828,8.828,0,0,1-2.471-5.85Zm2.94,6.29a9.383,9.383,0,0,1,1.989-1.1,11.179,11.179,0,0,0,2.1,3.066A8.262,8.262,0,0,1,4.2,16.613ZM9.361,18.7H9.328a10.246,10.246,0,0,1-2.543-3.4,9.379,9.379,0,0,1,2.579-.438Zm0-4.483a9.934,9.934,0,0,0-2.832.5,12.475,12.475,0,0,1-.9-4.383h3.73Zm0-4.532H5.628A12.579,12.579,0,0,1,6.3,5.858a9.949,9.949,0,0,0,3.054.583Zm0-3.888a9.381,9.381,0,0,1-2.82-.529A10.408,10.408,0,0,1,9.326,1.308h.032Z"/>
    </g>
  </g>
</svg>
