<svg xmlns="http://www.w3.org/2000/svg" width="32" height="32" viewBox="0 0 32 32">
  <path id="_1303878_arrow_arrows_bottom_circle_direction_icon" data-name="1303878_arrow_arrows_bottom_circle_direction_icon" d="M16,21.147a.8.8,0,0,1-.566-.234L8.341,13.819a.8.8,0,0,1,1.131-1.131L16,19.215l6.528-6.528a.8.8,0,0,1,1.131,1.131l-7.093,7.093A.8.8,0,0,1,16,21.147ZM32,16A16,16,0,1,0,16,32,16.018,16.018,0,0,0,32,16Zm-1.6,0A14.4,14.4,0,1,1,16,1.6,14.416,14.416,0,0,1,30.4,16Z" transform="translate(0 32) rotate(-90)"/>
</svg>
