<?xml version="1.0" encoding="utf-8"?>
<!-- Generator: Adobe Illustrator 26.0.2, SVG Export Plug-In . SVG Version: 6.00 Build 0)  -->
<svg version="1.1" id="Layer_1" xmlns="http://www.w3.org/2000/svg" xmlns:xlink="http://www.w3.org/1999/xlink" x="0px" y="0px"
	 viewBox="0 0 100 100" style="enable-background:new 0 0 100 100;" xml:space="preserve">
<style type="text/css">
	.st0{display:none;fill:#FFFFFF;}
	.st1{display:none;fill:#00DD28;}
	.st2{display:none;fill:none;}
	.st3{display:none;}
	.st4{display:inline;fill:#FFFFFF;}
	.st5{display:inline;}
	.st6{fill:#FFFFFF;}
</style>
<path id="f_3_" class="st0" d="M53.2,70.2V52h6.1l0.9-7.1h-7v-4.5c0-2.1,0.6-3.5,3.5-3.5h3.8v-6.4c-0.6-0.1-2.9-0.3-5.5-0.3
	c-5.4,0-9.1,3.3-9.1,9.4v5.3h-6.1V52h6.1v18.2H53.2L53.2,70.2z"/>
<rect x="0.2" y="0.4" class="st1" width="100" height="100"/>
<path id="XMLID_23_" class="st0" d="M43,66.8c15.1,0,23.4-12.5,23.4-23.4c0-0.4,0-0.7,0-1.1c1.6-1.2,3-2.6,4.1-4.3
	c-1.5,0.7-3.1,1.1-4.7,1.3c1.7-1,3-2.6,3.6-4.5c-1.6,1-3.4,1.6-5.2,2c-3.1-3.3-8.3-3.5-11.6-0.4c-2.1,2-3,5-2.4,7.8
	c-6.6-0.3-12.8-3.5-16.9-8.6c-2.2,3.8-1.1,8.5,2.5,11c-1.3,0-2.6-0.4-3.7-1v0.1c0,3.9,2.8,7.3,6.6,8c-1.2,0.3-2.5,0.4-3.7,0.1
	c1.1,3.3,4.2,5.6,7.7,5.7c-2.9,2.3-6.5,3.5-10.2,3.5c-0.7,0-1.3,0-2-0.1C34.1,65.6,38.5,66.8,43,66.8"/>
<rect x="0.2" y="0.4" class="st2" width="100" height="100"/>
<path class="st0" d="M62.6,42.7L62.6,42.7c0-3.8,0-7.7,0-11.5c0-0.6-0.1-0.8-0.8-0.8c-7.6,0-15.3,0-22.9,0c-0.7,0-0.8,0.3-0.8,0.9
	c0,7.6,0,15.2,0,22.8c0,0.6,0.2,0.9,0.8,0.9c7.6,0,15.3,0,22.9,0c0.6,0,0.8-0.2,0.8-0.8C62.6,50.4,62.6,46.6,62.6,42.7z M54.9,47.2
	L54.9,47.2c-1,0-2,0.2-2.7-0.2s-1.1-1.4-1.7-2.1c-0.5-0.7-0.9-1.3-1.4-2c-0.1-0.1-0.2-0.2-0.4-0.4c-0.1,0.4-0.1,0.6-0.1,0.8
	c0,1.1,0,2.2,0,3.3c0,0.4-0.1,0.6-0.6,0.6c-0.9,0-1.7,0-2.6,0c0-0.2-0.1-0.4-0.1-0.6c0-2.7,0-5.4,0-8.1c0-0.6,0.2-0.7,0.7-0.7
	s1,0.1,1.5,0c0.9-0.1,1.4,0.3,1.9,1c0.7,1.1,1.5,2.2,2.3,3.3c0.1,0.1,0.3,0.2,0.4,0.3c0.1-0.2,0.2-0.3,0.2-0.5c0-1.1,0-2.1,0-3.2
	c0-0.3,0-0.5,0-0.9c1,0,1.9,0,2.9,0c0.5,0,0.4,0.4,0.4,0.7c0,1.6,0,3.3,0,4.9c0,1.1,0,2.1,0,3.2C55.5,47.1,55.3,47.3,54.9,47.2z"/>
<path class="st0" d="M50.3,57c3.7,0,7.4,0,11.1,0c0.3,0,0.5,0.1,0.8,0.2c-0.1,0.2-0.2,0.4-0.4,0.6c-1.4,1.7-2.8,3.3-4.3,5
	c-0.3,0.3-0.7,0.5-1.1,0.5c-4.1,0-8.2,0-12.3,0c-0.4,0-0.8-0.2-1.1-0.5c-1.5-1.7-3-3.5-4.5-5.2c-0.1-0.1-0.2-0.3-0.2-0.4
	c0.1-0.1,0.3-0.2,0.4-0.2c0.2,0,0.3,0,0.5,0C43,57,46.7,57,50.3,57z"/>
<path class="st0" d="M49.7,70.6c-1.3-1.5-2.6-3-3.8-4.5c-0.1-0.1-0.2-0.3-0.3-0.5c0.2-0.1,0.4-0.2,0.6-0.2c1.4,0,2.7,0,4.1,0l0,0
	c1.3,0,2.6,0,3.9,0c0.3,0,0.6,0.2,0.9,0.2c-0.1,0.2-0.3,0.5-0.4,0.7c-1.2,1.4-2.5,2.9-3.7,4.3"/>
<rect class="st2" width="100" height="100"/>
<g id="svg_78" class="st3">
	<polygon id="svg_79" class="st4" points="45.6,45.2 44.4,48.7 46.9,48.7 46.9,48.7 	"/>
	<path id="svg_80" class="st4" d="M50.2,30.1c-12,0-21.7,7.7-21.7,17.1c0,6.1,4.1,11.5,10.2,14.5c-0.3,1.1-2.1,7.4-2.2,7.9
		c0,0,0,0.4,0.2,0.5s0.5,0,0.5,0c0.7-0.1,7.9-5.2,9.2-6.1c1.2,0.2,2.5,0.3,3.9,0.3c12,0,21.7-7.7,21.7-17.1
		C72,37.8,62.2,30.1,50.2,30.1z M39.5,51.9c0,0.7-0.6,1.2-1.2,1.2c-0.6,0-1.2-0.5-1.2-1.2v-7.4h-2c-0.7,0-1.2-0.5-1.2-1.2
		s0.6-1.2,1.2-1.2h6.4c0.7,0,1.2,0.5,1.2,1.2s-0.6,1.2-1.2,1.2h-2L39.5,51.9L39.5,51.9z M50,52.9c-0.2,0.1-0.5,0.2-0.8,0.2l0,0
		c-0.5,0-0.9-0.2-1-0.6l-0.6-1.6h-3.8l-0.6,1.6c-0.1,0.3-0.5,0.6-1,0.6c-0.3,0-0.5-0.1-0.8-0.2c-0.3-0.2-0.7-0.6-0.3-1.8l3-7.9
		c0.2-0.6,0.9-1.2,1.7-1.2c0.8,0,1.5,0.6,1.7,1.2l3,7.9C50.7,52.3,50.3,52.8,50,52.9z M56.3,52.9h-4c-0.7,0-1.2-0.5-1.2-1.1v-8.5
		c0-0.7,0.6-1.2,1.3-1.2c0.7,0,1.3,0.6,1.3,1.2v7.3h2.7c0.7,0,1.2,0.5,1.2,1.1C57.5,52.4,57,52.9,56.3,52.9z M66.1,52
		c0,0.3-0.2,0.6-0.5,0.8c-0.2,0.2-0.5,0.3-0.8,0.3c-0.4,0-0.8-0.2-1-0.5l-2.9-3.9l-0.4,0.4v2.7c0,0.7-0.6,1.2-1.3,1.3l0,0
		c-0.7,0-1.2-0.6-1.2-1.2v-8.6c0-0.7,0.6-1.2,1.2-1.2c0.7,0,1.2,0.6,1.2,1.2V46l3.5-3.5c0.2-0.2,0.4-0.3,0.7-0.3
		c0.3,0,0.6,0.1,0.9,0.4c0.2,0.2,0.3,0.5,0.4,0.8c0,0.3-0.1,0.6-0.3,0.8L62.8,47l3.1,4.1C66,51.3,66.1,51.7,66.1,52z"/>
</g>
<rect class="st2" width="100" height="100"/>
<g id="Shape_2_3_" class="st3">
	<g id="svg_86" class="st5">
		<path id="svg_87" class="st6" d="M58.7,30h-17c-1.1,0-2.1,0.9-2.1,2.1v17c0,1.1,0.9,2.1,2.1,2.1h7.8c-0.1,2-0.9,4.2-2.1,6.2
			C46,59.6,43.1,62,43.1,62c-0.2,0.2-0.4,0.5-0.4,0.8s0.1,0.5,0.3,0.7l5.5,6.2c0,0,0.3,0.3,0.5,0.3c0.2,0.1,0.5,0.1,0.7-0.1
			c9.5-7.3,10.8-16.5,11.1-21.5V32.1C60.8,30.9,59.9,30,58.7,30z"/>
	</g>
</g>
<rect class="st2" width="100" height="100"/>
<g id="svg_81" class="st3">
	<path id="svg_82" class="st4" d="M44.8,61.8l-2,2c-1.8,1.7-4.6,1.7-6.4,0c-0.8-0.8-1.3-1.9-1.3-3.1s0.5-2.3,1.3-3.1l7.5-7.4
		c1.5-1.5,4.4-3.8,6.6-1.7c1,1,2.5,1,3.5,0s1-2.5,0-3.5c-3.6-3.6-8.9-2.9-13.5,1.7L33,54.1c-1.8,1.8-2.8,4.1-2.8,6.6s1,4.9,2.8,6.6
		c1.8,1.8,4.3,2.7,6.7,2.7s4.8-0.9,6.7-2.7l2-2c1-1,1-2.5,0-3.5S45.8,60.8,44.8,61.8z M67.4,33.1c-3.9-3.8-9.3-4-12.8-0.5l-2.5,2.5
		c-1,1-1,2.5,0,3.5s2.5,1,3.5,0l2.5-2.5c1.9-1.8,4.3-1.1,5.9,0.5c0.8,0.8,1.3,1.9,1.3,3.1c0,1.2-0.5,2.3-1.3,3.1l-7.9,7.9
		c-3.6,3.6-5.3,1.9-6.1,1.2c-1-1-2.5-1-3.5,0s-1,2.5,0,3.5c1.7,1.7,3.6,2.5,5.6,2.5c2.4,0,5-1.2,7.5-3.7l7.9-7.9
		c1.8-1.8,2.8-4.1,2.8-6.6C70.2,37.2,69.2,34.9,67.4,33.1z"/>
</g>
<rect class="st2" width="100" height="100"/>
<g id="n5JLcb_3_">
	<g id="svg_93">
		<path id="svg_94" class="st6" d="M48.6,36c1.1,0,2.2,0,3.2,0c0,0,0.1,0,0.2,0c1,0,2.1,0,3.1,0c1.4,0,2.7,0.1,4.1,0.1
			c1.4,0,2.8,0.1,4.2,0.2c0.7,0,1.4,0.1,2.1,0.2c1.7,0.4,2.9,1.3,3.6,2.9c0.4,1,0.7,2.1,0.8,3.2c0.1,1.5,0.3,2.9,0.3,4.4
			c0.1,1.9,0,3.8,0,5.8c0,1.3-0.1,2.5-0.2,3.8c-0.1,1-0.2,2-0.5,3c-0.2,0.8-0.5,1.5-1,2.2c-1,1.2-2.2,1.8-3.7,1.9
			c-1.2,0.1-2.4,0.2-3.6,0.2c-1.6,0.1-3.1,0.1-4.7,0.2c-1.5,0-3,0-4.6,0.1c-0.1,0-0.1,0-0.2,0c-0.7,0-1.5,0-2.2,0h-0.1
			c-0.9,0-1.9,0-2.8,0c-1.2,0-2.5,0-3.7-0.1c-1.6,0-3.2-0.1-4.7-0.2c-1,0-2.1-0.1-3.1-0.4c-1.8-0.4-3-1.3-3.7-3.1
			c-0.4-1-0.6-2.1-0.7-3.1c-0.1-1.4-0.3-2.8-0.3-4.2c-0.1-3.4-0.1-6.8,0.3-10.2c0.1-1.1,0.3-2.1,0.7-3.1c0.6-1.5,1.6-2.5,3.2-3
			c0.8-0.3,1.7-0.3,2.6-0.4c1.3-0.1,2.7-0.1,4-0.2c1.5-0.1,3.1-0.1,4.7-0.1C46.8,36.1,47.7,36.1,48.6,36C48.4,36,48.5,36,48.6,36z
			 M56.9,49.7c-3.6-1.9-7.2-3.8-10.8-5.6c0,3.8,0,7.5,0,11.2C49.7,53.4,53.2,51.5,56.9,49.7z"/>
	</g>
</g>
<rect class="st2" width="100" height="100"/>
<g id="XMLID_10_" class="st3">
	<path id="XMLID_13_" class="st4" d="M69.1,36.9c-0.5-1.3-1.2-2.4-2.3-3.5s-2.2-1.8-3.5-2.3s-2.7-0.8-4.9-0.9
		c-2.1-0.1-2.8-0.1-8.3-0.1s-6.1,0-8.3,0.1c-2.1,0.1-3.6,0.4-4.9,0.9s-2.4,1.2-3.5,2.3s-1.8,2.2-2.3,3.5s-0.8,2.7-0.9,4.9
		c-0.1,2.1-0.1,2.8-0.1,8.3s0,6.1,0.1,8.3c0.1,2.1,0.4,3.6,0.9,4.9s1.2,2.4,2.3,3.5s2.2,1.8,3.5,2.3s2.7,0.8,4.9,0.9
		c2.1,0.1,2.8,0.1,8.3,0.1s6.1,0,8.3-0.1c2.1-0.1,3.6-0.4,4.9-0.9s2.4-1.2,3.5-2.3c1.1-1.1,1.8-2.2,2.3-3.5s0.8-2.7,0.9-4.9
		c0.1-2.1,0.1-2.8,0.1-8.3s0-6.1-0.1-8.3C70,39.6,69.6,38.1,69.1,36.9z M66.5,58c-0.1,1.9-0.4,3-0.7,3.7c-0.4,0.9-0.8,1.6-1.5,2.3
		c-0.7,0.7-1.4,1.1-2.3,1.5c-0.7,0.3-1.8,0.6-3.7,0.7c-2.1,0.1-2.7,0.1-8.1,0.1c-5.3,0-6,0-8.1-0.1c-1.9-0.1-3-0.4-3.7-0.7
		c-0.9-0.4-1.6-0.8-2.3-1.5c-0.7-0.7-1.1-1.4-1.5-2.3C34.3,61,34,59.9,33.9,58c-0.1-2.1-0.1-2.8-0.1-8.1s0-6,0.1-8.1
		c0.1-1.9,0.4-3,0.7-3.7c0.4-0.9,0.8-1.6,1.5-2.3s1.4-1.1,2.3-1.5c0.7-0.3,1.8-0.6,3.7-0.7c2.1-0.1,2.8-0.1,8.1-0.1
		c5.3,0,6,0,8.1,0.1c1.9,0.1,3,0.4,3.7,0.7c0.9,0.4,1.6,0.8,2.3,1.5c0.7,0.7,1.1,1.4,1.5,2.3c0.3,0.7,0.6,1.8,0.7,3.7
		c0.1,2.1,0.1,2.8,0.1,8.1C66.6,55.3,66.6,55.9,66.5,58z"/>
	<path id="XMLID_12_" class="st4" d="M50.2,39.7c-5.7,0-10.3,4.6-10.3,10.3s4.6,10.3,10.3,10.3S60.5,55.7,60.5,50
		S55.9,39.7,50.2,39.7z M50.2,56.6c-3.7,0-6.7-3-6.7-6.7s3-6.7,6.7-6.7s6.7,3,6.7,6.7S53.9,56.6,50.2,56.6z"/>
	<circle id="XMLID_11_" class="st4" cx="60.9" cy="39.3" r="2.4"/>
</g>
<rect class="st2" width="100" height="100"/>
<g id="svg_34" class="st3">
	<polygon id="svg_35" class="st4" points="67.7,30 53.2,30 53.2,32.5 65.9,32.5 53.2,45.2 54.9,47 67.7,34.1 67.7,47 70.2,47 
		70.2,32.5 70.2,30 	"/>
	<polygon id="svg_36" class="st4" points="67.7,67.5 32.7,67.5 32.7,32.5 50.2,32.5 50.2,30 30.2,30 30.2,70 70.2,70 70.2,50 
		67.7,50 	"/>
</g>
<rect class="st0" width="100" height="100"/>
<g class="st3">
	<path class="st4" d="M42.6,29.1L42.6,29.1L42.6,29.1L42.6,29.1c-11.1,0-20,9-20,20s8.9,20,20,20l0,0l0,0l0,0c0.9,0,1.9-0.1,2.8-0.2
		v-2.7c-0.6,0.6-1.3,1-2,1.2v-8.7c0.7,0,1.3,0.1,2,0.1v-1.6c-0.7-0.1-1.3-0.1-2-0.1v-7.2h7.2c0,0.7,0,1.3-0.1,2h1.6
		c0-0.7,0.1-1.3,0.1-2H61c0,0.7-0.1,1.3-0.2,2h1.6c0.1-0.9,0.2-1.8,0.2-2.8C62.6,38.1,53.7,29.1,42.6,29.1z M38.2,31.2
		c-1.5,1.6-2.9,4.1-3.8,7c-1.7-0.5-3.4-1.2-5-2.1C31.9,33.8,34.9,32.1,38.2,31.2z M28.4,37.5c1.8,1,3.7,1.8,5.7,2.4
		c-0.6,2.6-1,5.4-1.1,8.5h-8.7C24.4,44.2,26,40.4,28.4,37.5z M28.4,60.8c-2.5-3-4-6.8-4.2-10.9h8.7c0.1,3.1,0.4,5.9,1.1,8.5
		C32.1,59,30.2,59.8,28.4,60.8z M29.5,62c1.6-0.8,3.2-1.5,5-2.1c0.9,3,2.2,5.4,3.8,7.1C34.9,66.2,31.9,64.4,29.5,62z M41.8,67.4
		c-2.2-0.6-4.4-3.5-5.8-7.9c1.9-0.5,3.8-0.7,5.8-0.8V67.4z M41.8,57.1c-2.1,0.1-4.2,0.3-6.2,0.8c-0.6-2.4-1-5.1-1-8.1h7.2V57.1z
		 M41.8,48.3h-7.2c0.1-3,0.4-5.7,1-8.1c2,0.5,4.1,0.8,6.2,0.8V48.3z M41.8,39.5c-2-0.1-3.9-0.3-5.8-0.8c1.4-4.4,3.6-7.3,5.8-7.9
		V39.5z M43.4,30.9c2.2,0.6,4.3,3.5,5.7,7.9c-1.8,0.4-3.8,0.7-5.7,0.8V30.9z M43.4,48.3v-7.2l0,0c2.1-0.1,4.2-0.3,6.2-0.8
		c0.6,2.4,1,5.1,1,8.1L43.4,48.3L43.4,48.3z M46.9,31.2c3.4,0.8,6.4,2.6,8.8,5c-1.6,0.8-3.3,1.5-5,2.1
		C49.8,35.3,48.5,32.8,46.9,31.2z M61,48.3h-8.8c-0.1-3-0.4-5.9-1.1-8.5c2-0.6,3.9-1.4,5.7-2.4C59.2,40.4,60.8,44.2,61,48.3z"/>
	<polygon class="st4" points="61.7,56.2 59.2,56.2 51.2,64.4 51.2,56.2 49.2,56.2 49.2,70.9 51.2,70.9 51.2,67.1 54,64.3 59.7,70.9 
		62.1,70.9 55.4,62.8 	"/>
	<path class="st4" d="M73,65.9c2.1-0.7,3.2-2.4,3.2-4.6c0-3.2-2.3-5.1-6.1-5.1h-5.7v14.7h2.1v-4.5h3.6c0.3,0,0.6,0,0.9,0l3.2,4.5
		h2.3L73,65.9z M70,64.6h-3.6V58H70c2.7,0,4.1,1.2,4.1,3.3S72.7,64.6,70,64.6z"/>
</g>
<rect class="st0" width="100" height="100"/>
<g class="st3">
	<path class="st4" d="M43.5,29.1L43.5,29.1L43.5,29.1L43.5,29.1c-11.1,0-20,9-20,20s8.9,20,20,20l0,0l0,0l0,0c0.9,0,1.9-0.1,2.8-0.2
		v-2.7c-0.6,0.6-1.3,1-2,1.2v-8.7c0.7,0,1.3,0.1,2,0.1v-1.6c-0.7-0.1-1.3-0.1-2-0.1v-7.2h7.2c0,0.7,0,1.3-0.1,2H53
		c0-0.7,0.1-1.3,0.1-2h8.8c0,0.7-0.1,1.3-0.2,2h1.6c0.1-0.9,0.2-1.8,0.2-2.8C63.5,38.1,54.6,29.1,43.5,29.1z M39.2,31.2
		c-1.5,1.6-2.9,4.1-3.8,7c-1.7-0.5-3.4-1.2-5-2.1C32.8,33.8,35.8,32.1,39.2,31.2z M29.3,37.5c1.8,1,3.7,1.8,5.7,2.4
		c-0.6,2.6-1,5.4-1.1,8.5h-8.7C25.3,44.2,26.9,40.4,29.3,37.5z M29.3,60.8c-2.5-3-4-6.8-4.2-10.9h8.7c0.1,3.1,0.4,5.9,1.1,8.5
		C33,59,31.1,59.8,29.3,60.8z M30.4,62c1.6-0.8,3.2-1.5,5-2.1c0.9,3,2.2,5.4,3.8,7.1C35.8,66.2,32.8,64.4,30.4,62z M42.7,67.4
		c-2.2-0.6-4.4-3.5-5.8-7.9c1.9-0.5,3.8-0.7,5.8-0.8V67.4z M42.7,57.1c-2.1,0.1-4.2,0.3-6.2,0.8c-0.6-2.4-1-5.1-1-8.1h7.2V57.1z
		 M42.7,48.3h-7.2c0.1-3,0.4-5.7,1-8.1c2,0.5,4.1,0.8,6.2,0.8V48.3z M42.7,39.5c-2-0.1-3.9-0.3-5.8-0.8c1.4-4.4,3.6-7.3,5.8-7.9
		V39.5z M44.3,30.9c2.2,0.6,4.3,3.5,5.7,7.9c-1.8,0.4-3.8,0.7-5.7,0.8V30.9z M44.3,48.3v-7.2l0,0c2.1-0.1,4.2-0.3,6.2-0.8
		c0.6,2.4,1,5.1,1,8.1L44.3,48.3L44.3,48.3z M47.8,31.2c3.4,0.8,6.4,2.6,8.8,5c-1.6,0.8-3.3,1.5-5,2.1
		C50.7,35.3,49.4,32.8,47.8,31.2z M61.9,48.3h-8.8c-0.1-3-0.4-5.9-1.1-8.5c2-0.6,3.9-1.4,5.7-2.4C60.2,40.4,61.7,44.2,61.9,48.3z"/>
	<polygon class="st4" points="52.2,64.3 59.6,64.3 59.6,62.5 52.2,62.5 52.2,58 60.5,58 60.5,56.2 50.1,56.2 50.1,70.9 60.8,70.9 
		60.8,69 52.2,69 	"/>
	<polygon class="st4" points="74.8,56.2 74.8,67.1 65.9,56.2 64.2,56.2 64.2,70.9 66.3,70.9 66.3,59.9 75.1,70.9 76.9,70.9 
		76.9,56.2 	"/>
</g>
</svg>
