<svg id="_9004798_arrow_direction_right_next_icon" data-name="9004798_arrow_direction_right_next_icon" xmlns="http://www.w3.org/2000/svg" width="16" height="16" viewBox="0 0 16 16">
  <path id="_9004798_arrow_direction_right_next_icon-2" data-name="9004798_arrow_direction_right_next_icon" d="M9,1a8,8,0,1,0,8,8A8,8,0,0,0,9,1Zm4.878,8.514-2.909,2.909A.727.727,0,1,1,9.94,11.395l1.668-1.668H4.636a.727.727,0,0,1,0-1.455h6.972L9.94,6.605a.727.727,0,1,1,1.028-1.028l2.909,2.909A.727.727,0,0,1,13.878,9.514Z" transform="translate(-1 -1)" fill="#dd3156"/>
</svg>
